<svg version="1.0" xmlns="http://www.w3.org/2000/svg" width="241.333" height="241.333" viewBox="0 0 181 181"><path d="M76.7 21.7C42 27.6 15.2 58.6 14.8 93.3c-.2 10.9.7 16.9 3.6 26.3 7.4 23.3 27.8 42.7 51.5 49 8.4 2.2 11.7 2.6 21.6 2.5 41.2-.3 74.1-34.3 73.8-76.1-.4-46.7-42.2-81.3-88.6-73.3zm27.8 9.3c20.4 4.6 38.6 19.9 46.8 39.5 15.5 37.2-6 79.6-45.8 90-7.3 1.9-23.7 1.8-31.4-.2-11.3-2.8-26.8-11.9-32.2-18.6-.9-1.2-2.9-3.5-4.3-5.2-5.7-6.6-12-21.3-13.3-31-4.8-35.7 19.1-68.8 54.2-75 7.7-1.3 18.8-1.1 26 .5z"/><path d="M54 58.7c-1.3.3-1.5 4.8-1.4 34.6.1 18.8.2 34.7.3 35.2 0 .6 3.1 1.1 7.1 1.1h7l.1-4.6c.2-9.2 0-19.8-.6-32.9-.3-7.4-.4-13.3-.1-13 .2.2 3.6 9.4 7.5 20.4 4 11 7.6 20.9 8.1 22 .4 1.1 1.3 3.4 1.9 5 1.1 2.8 1.5 3 6.1 3.1 2.8 0 5 0 5-.1s2.7-7.5 6.1-16.6c3.3-9 7.3-20.2 9-24.8 1.6-4.7 3.1-8.7 3.4-9 .3-.3.3 5.2-.1 12.1-.5 11.5-.7 25.9-.5 34.8l.1 3.5 7 .1c4.1 0 7.1-.4 7.1-1.1.4-3.4.3-68.8-.1-69.4-.3-.3-4.6-.6-9.7-.6h-9.1l-7.8 22c-4.3 12.1-8.4 23.6-9.2 25.5l-1.4 3.4-8.4-23.7c-4.6-13.1-8.8-24.5-9.3-25.5-.8-1.3-2.5-1.7-8.8-1.7-4.3 0-8.5.1-9.3.2z"/></svg>