<?xml version="1.0" standalone="no"?>
<!DOCTYPE svg PUBLIC "-//W3C//DTD SVG 20010904//EN"
 "http://www.w3.org/TR/2001/REC-SVG-20010904/DTD/svg10.dtd">
<svg version="1.0" xmlns="http://www.w3.org/2000/svg"
 width="181.000000pt" height="181.000000pt" viewBox="0 0 181.000000 181.000000"
 preserveAspectRatio="xMidYMid meet">
<metadata>
Created by potrace 1.14, written by Peter Selinger 2001-2017
</metadata>
<g transform="translate(0.000000,181.000000) scale(0.100000,-0.100000)"
fill="#000000" stroke="none">
<path d="M767 1593 c-347 -59 -615 -369 -619 -716 -2 -109 7 -169 36 -263 74
-233 278 -427 515 -490 84 -22 117 -26 216 -25 412 3 741 343 738 761 -4 467
-422 813 -886 733z m278 -93 c204 -46 386 -199 468 -395 155 -372 -60 -796
-458 -900 -73 -19 -237 -18 -314 2 -113 28 -268 119 -322 186 -9 12 -29 35
-43 52 -57 66 -120 213 -133 310 -48 357 191 688 542 750 77 13 188 11 260 -5z"/>
<path d="M540 1223 c-13 -3 -15 -48 -14 -346 1 -188 2 -347 3 -352 0 -6 31
-11 71 -11 l70 0 1 46 c2 92 0 198 -6 329 -3 74 -4 133 -1 130 2 -2 36 -94 75
-204 40 -110 76 -209 81 -220 4 -11 13 -34 19 -50 11 -28 15 -30 61 -31 28 0
50 0 50 1 0 1 27 75 61 166 33 90 73 202 90 248 16 47 31 87 34 90 3 3 3 -52
-1 -121 -5 -115 -7 -259 -5 -348 l1 -35 70 -1 c41 0 71 4 71 11 4 34 3 688 -1
694 -3 3 -46 6 -97 6 l-91 0 -78 -220 c-43 -121 -84 -236 -92 -255 l-14 -34
-84 237 c-46 131 -88 245 -93 255 -8 13 -25 17 -88 17 -43 0 -85 -1 -93 -2z"/>
</g>
</svg>
